<svg width="35" height="35" viewBox="0 0 35 35" fill="none" xmlns="http://www.w3.org/2000/svg">
<path d="M17.5 3.28125C9.66003 3.28125 3.28125 9.66003 3.28125 17.5C3.28125 25.34 9.66003 31.7188 17.5 31.7188C25.34 31.7188 31.7188 25.34 31.7188 17.5C31.7188 9.66003 25.34 3.28125 17.5 3.28125ZM17.5 5.46875C24.1565 5.46875 29.5312 10.8435 29.5312 17.5C29.5312 24.1565 24.1565 29.5312 17.5 29.5312C10.8435 29.5312 5.46875 24.1565 5.46875 17.5C5.46875 10.8435 10.8435 5.46875 17.5 5.46875ZM15.5518 10.1514L13.9795 11.7236L19.7559 17.5L13.9795 23.2764L15.5518 24.8486L22.1143 18.2861L22.8662 17.5L22.1143 16.7139L15.5518 10.1514Z" fill="#0060AA"/>
</svg>
