<svg width="24" height="24" viewBox="0 0 24 24" fill="none" xmlns="http://www.w3.org/2000/svg">
<g clip-path="url(#clip0_13_220)">
<path d="M14.2502 0V1.5C18.7989 1.5 22.5002 5.20125 22.5002 9.75H24.0002C24.0002 4.374 19.6262 0 14.2502 0ZM6.48798 2.25439C6.09432 2.25439 5.70101 2.38283 5.38056 2.64111L5.34394 2.67041L2.98554 5.10352L3.03534 5.05664C2.25487 5.72881 2.03977 6.79059 2.3747 7.68311C3.0067 9.50556 4.61782 13.0297 7.79608 16.2041C10.9811 19.393 14.5423 20.9351 16.3039 21.6226L16.3215 21.6284L16.3391 21.6343C17.2499 21.9396 18.2338 21.7218 18.9391 21.1187L18.9611 21.0996L21.3049 18.7559C21.927 18.1337 21.927 17.043 21.3049 16.4209L18.2316 13.3447C17.6077 12.7208 16.5176 12.7208 15.8937 13.3447L14.4055 14.833C13.8727 14.5787 12.5618 13.919 11.3161 12.731C10.0866 11.5585 9.45895 10.2033 9.23163 9.67969L10.7316 8.17969C11.3898 7.52149 11.4273 6.39146 10.6686 5.7876L10.7375 5.85059L7.63056 2.67041L7.5954 2.64111C7.27494 2.38285 6.88164 2.25439 6.48798 2.25439ZM14.2502 3V4.5C17.1444 4.5 19.5002 6.855 19.5002 9.75H21.0002C21.0002 6.0285 17.9724 3 14.2502 3ZM6.48944 3.75C6.54289 3.74991 6.59562 3.77005 6.64765 3.81006L9.69745 6.93311L9.73407 6.9624C9.72545 6.95554 9.76289 7.02734 9.67108 7.11914L7.45331 9.33691L7.6247 9.78955C7.6247 9.78955 8.47118 12.0911 10.2805 13.8164C12.0596 15.5132 14.2531 16.4399 14.2531 16.4399L14.7204 16.6392L16.9543 14.4053C17.0804 14.2792 17.045 14.2792 17.1711 14.4053L20.2443 17.4814C20.3722 17.6093 20.3722 17.5674 20.2443 17.6953L17.9592 19.9805C17.6112 20.2762 17.2517 20.3537 16.8195 20.2104C15.1229 19.547 11.8046 18.0952 8.85663 15.1436C5.88818 12.1787 4.34998 8.80995 3.78534 7.17773L3.78241 7.16895L3.77802 7.15869C3.66445 6.85836 3.74746 6.42279 4.01386 6.19336L4.03876 6.17139L6.32977 3.81006C6.38183 3.77042 6.436 3.75009 6.48944 3.75ZM14.2502 6V7.5C15.4907 7.5 16.5002 8.5095 16.5002 9.75H18.0002C18.0002 7.68225 16.3179 6 14.2502 6Z" fill="black"/>
</g>
<defs>
<clipPath id="clip0_13_220">
<rect width="24" height="24" fill="white"/>
</clipPath>
</defs>
</svg>
