<svg width="44" height="45" viewBox="0 0 44 45" fill="none" xmlns="http://www.w3.org/2000/svg">
<g clip-path="url(#clip0_39_429)">
<path d="M25.8311 0V2.8125C34.0767 2.8125 40.7859 9.75234 40.7859 18.2812H43.505C43.505 8.20125 35.5762 0 25.8311 0ZM11.7605 4.22699C11.0469 4.22699 10.334 4.4678 9.75307 4.95209L9.68668 5.00702L5.4116 9.56909L5.50188 9.4812C4.0871 10.7415 3.6972 12.7324 4.30432 14.4058C5.44996 17.8229 8.37045 24.4307 14.1317 30.3827C19.9053 36.362 26.3606 39.2533 29.5539 40.5423L29.5858 40.5533L29.6176 40.5643C31.2686 41.1367 33.0522 40.7284 34.3308 39.5975L34.3707 39.5618L38.6192 35.1672C39.7469 34.0007 39.7469 31.9557 38.6192 30.7892L33.0483 25.0214C31.9174 23.8515 29.9413 23.8515 28.8104 25.0214L26.1126 27.8119C25.1468 27.3351 22.7705 26.0981 20.5125 23.8705C18.2838 21.6722 17.146 19.1312 16.7339 18.1494L19.453 15.3369C20.6461 14.1028 20.714 11.984 19.3388 10.8517L19.4636 10.9698L13.8317 5.00702L13.7679 4.95209C13.187 4.46784 12.4741 4.22699 11.7605 4.22699ZM25.8311 5.625V8.4375C31.0775 8.4375 35.3478 12.8531 35.3478 18.2812H38.0669C38.0669 11.3034 32.5785 5.625 25.8311 5.625ZM11.7632 7.03125C11.86 7.03108 11.9556 7.06884 12.0499 7.14386L17.5783 12.9996L17.6447 13.0545C17.6291 13.0416 17.697 13.1763 17.5305 13.3484L13.5104 17.5067L13.821 18.3554C13.821 18.3554 15.3555 22.6707 18.6352 25.9058C21.8603 29.0873 25.8364 30.8249 25.8364 30.8249L26.6835 31.1984L30.7329 27.0099C30.9614 26.7735 30.8973 26.7735 31.1258 27.0099L36.6967 32.7777C36.9285 33.0175 36.9285 32.939 36.6967 33.1787L32.5544 37.4634C31.9237 38.0179 31.272 38.1633 30.4886 37.8946C27.4131 36.6507 21.398 33.9284 16.0542 28.3942C10.6732 22.8351 7.88494 16.5186 6.86141 13.4583L6.8561 13.4418L6.84813 13.4225C6.64227 12.8594 6.79275 12.0427 7.27564 11.6125L7.32078 11.5714L11.4737 7.14386C11.5681 7.06953 11.6663 7.03142 11.7632 7.03125ZM25.8311 11.25V14.0625C28.0798 14.0625 29.9097 15.9553 29.9097 18.2812H32.6288C32.6288 14.4042 29.5793 11.25 25.8311 11.25Z" fill="white"/>
</g>
<defs>
<clipPath id="clip0_39_429">
<rect width="43.505" height="45" fill="white"/>
</clipPath>
</defs>
</svg>
